<?xml version="1.0" encoding="UTF-8" standalone="no"?>
<svg
   width="372.42169"
   zoomAndPan="magnify"
   viewBox="0 0 279.31627 96.749998"
   height="129"
   preserveAspectRatio="xMidYMid"
   version="1.0"
   id="svg106"
   sodipodi:docname="logo_extended_alt.svg"
   inkscape:version="1.2.2 (b0a8486541, 2022-12-01)"
   xmlns:inkscape="http://www.inkscape.org/namespaces/inkscape"
   xmlns:sodipodi="http://sodipodi.sourceforge.net/DTD/sodipodi-0.dtd"
   xmlns="http://www.w3.org/2000/svg"
   xmlns:svg="http://www.w3.org/2000/svg">
  <sodipodi:namedview
     id="namedview108"
     pagecolor="#ffffff"
     bordercolor="#000000"
     borderopacity="0.25"
     inkscape:showpageshadow="2"
     inkscape:pageopacity="0.0"
     inkscape:pagecheckerboard="0"
     inkscape:deskcolor="#d1d1d1"
     showgrid="false"
     inkscape:zoom="2.4737061"
     inkscape:cx="195.65784"
     inkscape:cy="83.073733"
     inkscape:window-width="1536"
     inkscape:window-height="867"
     inkscape:window-x="0"
     inkscape:window-y="0"
     inkscape:window-maximized="1"
     inkscape:current-layer="svg106" />
  <defs
     id="defs16">
    <g
       id="g2" />
    <clipPath
       id="4f7d59bc65">
      <path
         d="m 77,138.94922 h 68.39453 V 187 H 77 Z m 0,0"
         clip-rule="nonzero"
         id="path4" />
    </clipPath>
    <clipPath
       id="12bdb2c73c">
      <path
         d="M 59.894531,155 H 128 v 48 H 59.894531 Z m 0,0"
         clip-rule="nonzero"
         id="path7" />
    </clipPath>
    <clipPath
       id="6a98a9786a">
      <path
         d="m 77,171 h 68.39453 v 49 H 77 Z m 0,0"
         clip-rule="nonzero"
         id="path10" />
    </clipPath>
    <clipPath
       id="92728bb1ad">
      <path
         d="m 59.933594,187.91797 h 67.624996 v 47.78125 H 59.933594 Z m 0,0"
         clip-rule="nonzero"
         id="path13" />
    </clipPath>
    <filter
       style="color-interpolation-filters:sRGB;"
       inkscape:label="Invert"
       id="filter1383"
       x="0"
       y="0"
       width="1"
       height="1">
      <feColorMatrix
         type="hueRotate"
         values="180"
         result="color1"
         id="feColorMatrix1379" />
      <feColorMatrix
         values="-1 0 0 0 1 0 -1 0 0 1 0 0 -1 0 1 -0.21 -0.72 -0.07 2 0 "
         result="color2"
         id="feColorMatrix1381" />
    </filter>
    <filter
       style="color-interpolation-filters:sRGB;"
       inkscape:label="Invert"
       id="filter1389"
       x="0"
       y="0"
       width="1"
       height="1">
      <feColorMatrix
         type="hueRotate"
         values="180"
         result="color1"
         id="feColorMatrix1385" />
      <feColorMatrix
         values="-1 0 0 0 1 0 -1 0 0 1 0 0 -1 0 1 -0.21 -0.72 -0.07 2 0 "
         result="color2"
         id="feColorMatrix1387" />
    </filter>
    <filter
       style="color-interpolation-filters:sRGB;"
       inkscape:label="Invert"
       id="filter1395"
       x="0"
       y="0"
       width="1"
       height="1">
      <feColorMatrix
         type="hueRotate"
         values="180"
         result="color1"
         id="feColorMatrix1391" />
      <feColorMatrix
         values="-1 0 0 0 1 0 -1 0 0 1 0 0 -1 0 1 -0.21 -0.72 -0.07 2 0 "
         result="color2"
         id="feColorMatrix1393" />
    </filter>
    <filter
       style="color-interpolation-filters:sRGB;"
       inkscape:label="Invert"
       id="filter1401"
       x="0"
       y="0"
       width="1"
       height="1">
      <feColorMatrix
         type="hueRotate"
         values="180"
         result="color1"
         id="feColorMatrix1397" />
      <feColorMatrix
         values="-1 0 0 0 1 0 -1 0 0 1 0 0 -1 0 1 -0.21 -0.72 -0.07 2 0 "
         result="color2"
         id="feColorMatrix1399" />
    </filter>
    <filter
       style="color-interpolation-filters:sRGB;"
       inkscape:label="Invert"
       id="filter1407"
       x="0"
       y="0"
       width="1"
       height="1">
      <feColorMatrix
         type="hueRotate"
         values="180"
         result="color1"
         id="feColorMatrix1403" />
      <feColorMatrix
         values="-1 0 0 0 1 0 -1 0 0 1 0 0 -1 0 1 -0.21 -0.72 -0.07 2 0 "
         result="color2"
         id="feColorMatrix1405" />
    </filter>
    <filter
       style="color-interpolation-filters:sRGB;"
       inkscape:label="Invert"
       id="filter1413"
       x="0"
       y="0"
       width="1"
       height="1">
      <feColorMatrix
         type="hueRotate"
         values="180"
         result="color1"
         id="feColorMatrix1409" />
      <feColorMatrix
         values="-1 0 0 0 1 0 -1 0 0 1 0 0 -1 0 1 -0.21 -0.72 -0.07 2 0 "
         result="color2"
         id="feColorMatrix1411" />
    </filter>
    <filter
       style="color-interpolation-filters:sRGB;"
       inkscape:label="Invert"
       id="filter1419"
       x="0"
       y="0"
       width="1"
       height="1">
      <feColorMatrix
         type="hueRotate"
         values="180"
         result="color1"
         id="feColorMatrix1415" />
      <feColorMatrix
         values="-1 0 0 0 1 0 -1 0 0 1 0 0 -1 0 1 -0.21 -0.72 -0.07 2 0 "
         result="color2"
         id="feColorMatrix1417" />
    </filter>
    <filter
       style="color-interpolation-filters:sRGB;"
       inkscape:label="Invert"
       id="filter1425"
       x="0"
       y="0"
       width="1"
       height="1">
      <feColorMatrix
         type="hueRotate"
         values="180"
         result="color1"
         id="feColorMatrix1421" />
      <feColorMatrix
         values="-1 0 0 0 1 0 -1 0 0 1 0 0 -1 0 1 -0.21 -0.72 -0.07 2 0 "
         result="color2"
         id="feColorMatrix1423" />
    </filter>
    <filter
       style="color-interpolation-filters:sRGB;"
       inkscape:label="Invert"
       id="filter1431"
       x="0"
       y="0"
       width="1"
       height="1">
      <feColorMatrix
         type="hueRotate"
         values="180"
         result="color1"
         id="feColorMatrix1427" />
      <feColorMatrix
         values="-1 0 0 0 1 0 -1 0 0 1 0 0 -1 0 1 -0.21 -0.72 -0.07 2 0 "
         result="color2"
         id="feColorMatrix1429" />
    </filter>
    <filter
       style="color-interpolation-filters:sRGB;"
       inkscape:label="Invert"
       id="filter924"
       x="0"
       y="0"
       width="1"
       height="1">
      <feColorMatrix
         type="hueRotate"
         values="180"
         result="color1"
         id="feColorMatrix920" />
      <feColorMatrix
         values="-1 0 0 0 1 0 -1 0 0 1 0 0 -1 0 1 -0.21 -0.72 -0.07 2 0 "
         result="color2"
         id="feColorMatrix922" />
    </filter>
    <filter
       style="color-interpolation-filters:sRGB;"
       inkscape:label="Invert"
       id="filter930"
       x="0"
       y="0"
       width="1"
       height="1">
      <feColorMatrix
         type="hueRotate"
         values="180"
         result="color1"
         id="feColorMatrix926" />
      <feColorMatrix
         values="-1 0 0 0 1 0 -1 0 0 1 0 0 -1 0 1 -0.21 -0.72 -0.07 2 0 "
         result="color2"
         id="feColorMatrix928" />
    </filter>
  </defs>
  <g
     clip-path="url(#4f7d59bc65)"
     id="g20"
     transform="translate(-59.933594,-138.94922)"
     style="filter:url(#filter930)">
    <path
       fill="#587d9f"
       d="m 121.34766,171.64844 c -2.29688,0 -3.07422,-0.32032 -10.25782,-4.50782 -2.00781,-1.16015 -4.46484,-2.57812 -7.50781,-4.32031 3.04297,-1.70703 5.46875,-3.125 7.47656,-4.28125 7.27735,-4.1914 8.05469,-4.54687 10.28907,-4.54687 4.88281,0 8.83203,3.96484 8.86328,8.86328 -0.0312,4.86328 -4.01172,8.79297 -8.86328,8.79297 z m 24.00781,-8.79297 c 0,0 0,-0.0664 0,-0.0977 -0.0312,-13.14453 -10.8086,-23.80859 -24.00781,-23.80859 -6.66797,0 -10.09766,1.96484 -20.19141,7.82812 -4.789062,2.76953 -11.359375,6.57422 -20.839844,11.69532 -1.582031,0.87109 -2.585937,2.51171 -2.585937,4.34765 0,1.80469 1.003906,3.48047 2.585937,4.35156 9.609375,5.1875 16.246094,9.01954 21.066404,11.82422 10.28907,5.96094 13.39453,7.73047 19.9961,7.73047 13.20312,0 23.97656,-10.72656 23.97656,-23.87109"
       fill-opacity="1"
       fill-rule="nonzero"
       id="path18" />
  </g>
  <g
     clip-path="url(#12bdb2c73c)"
     id="g24"
     transform="translate(-59.933594,-138.94922)">
    <path
       fill="#d6e0ed"
       d="m 83.941406,170.32812 c 2.296875,0 3.074219,0.32422 10.289063,4.51172 2.007812,1.16016 4.464843,2.57813 7.507811,4.28516 -3.042968,1.70703 -5.468749,3.09375 -7.472655,4.28516 -7.28125,4.1875 -8.058594,4.53906 -10.292969,4.53906 -4.882812,0 -8.832031,-3.96094 -8.832031,-8.85938 -0.03125,-4.83203 3.949219,-8.76172 8.800781,-8.76172 z m 20.191404,24.8711 c 4.78907,-2.76953 11.35547,-6.57031 20.83594,-11.72656 1.58594,-0.86719 2.58984,-2.51172 2.58984,-4.34766 0,-1.80469 -1.0039,-3.48047 -2.58984,-4.35156 -9.60937,-5.1875 -16.21094,-9.01953 -21.03125,-11.82422 -10.289062,-5.95703 -13.394531,-7.73047 -19.996094,-7.73047 -13.234375,0 -24.007812,10.73047 -24.007812,23.87109 v 0.0664 c 0.03125,13.14453 10.804687,23.80859 24.007812,23.80859 6.667969,0.0664 10.0625,-1.89843 20.191404,-7.76562"
       fill-opacity="1"
       fill-rule="nonzero"
       id="path22" />
  </g>
  <g
     clip-path="url(#6a98a9786a)"
     id="g28"
     transform="translate(-59.933594,-138.94922)">
    <path
       fill="#30373f"
       d="m 121.34766,204.28516 c -2.29688,0 -3.07422,-0.32032 -10.25782,-4.50782 -2.00781,-1.16015 -4.46484,-2.57812 -7.50781,-4.32031 3.04297,-1.70703 5.46875,-3.125 7.47656,-4.28516 7.27735,-4.1875 8.05469,-4.53906 10.28907,-4.53906 4.88281,0 8.83203,3.96094 8.86328,8.85938 -0.0312,4.89453 -4.01172,8.79297 -8.86328,8.79297 z m 24.00781,-8.79297 c 0,0 0,-0.0664 0,-0.0977 -0.0312,-13.14453 -10.8086,-23.80859 -24.00781,-23.80859 -6.66797,0 -10.09766,1.96484 -20.19141,7.82812 -4.789062,2.76953 -11.359375,6.57422 -20.839844,11.69531 -1.582031,0.86719 -2.585937,2.51172 -2.585937,4.34766 0,1.80469 1.003906,3.48047 2.585937,4.35156 9.609375,5.1875 16.246094,9.01953 21.066404,11.82422 10.28907,5.95703 13.39453,7.73047 19.9961,7.73047 13.20312,0.0312 23.97656,-10.69531 23.97656,-23.87109"
       fill-opacity="1"
       fill-rule="nonzero"
       id="path26" />
  </g>
  <g
     clip-path="url(#92728bb1ad)"
     id="g32"
     transform="translate(-59.933594,-138.94922)">
    <path
       fill="#587d9f"
       d="m 83.941406,203.03125 c 2.296875,0 3.074219,0.32031 10.289063,4.50781 2.007812,1.16016 4.464843,2.57813 7.507811,4.28516 -3.011718,1.70703 -5.468749,3.09375 -7.472655,4.2539 -7.28125,4.1875 -8.058594,4.54297 -10.292969,4.54297 -4.882812,0 -8.832031,-3.96484 -8.832031,-8.85937 -0.03125,-4.80078 3.949219,-8.73047 8.800781,-8.73047 z m 20.191404,24.87109 c 4.78907,-2.76953 11.35547,-6.57422 20.83594,-11.72656 1.58594,-0.87109 2.58984,-2.51562 2.58984,-4.35156 0,-1.80469 -1.0039,-3.48047 -2.58984,-4.34766 -9.60937,-5.21875 -16.24219,-9.02344 -21.0625,-11.82422 -10.289062,-5.96093 -13.394531,-7.73437 -19.996094,-7.73437 -13.203125,0.0312 -23.976562,10.76172 -23.976562,23.90625 v 0.0664 c 0.03125,13.14454 10.804687,23.8086 24.007812,23.8086 6.667969,0.0312 10.0625,-1.9336 20.191404,-7.79688"
       fill-opacity="1"
       fill-rule="nonzero"
       id="path30"
       style="filter:url(#filter924)" />
  </g>
  <g
     fill="#30373f"
     fill-opacity="1"
     id="g40"
     transform="translate(-59.933594,-138.94922)"
     style="filter:url(#filter1383)">
    <g
       transform="translate(169.10851,176.99999)"
       id="g38">
      <g
         id="g36">
        <path
           d="M 8.734375,-5.796875 V -22.722656 H 10.625 c 4.871094,0 8.148438,3.695312 8.148438,8.441406 0,4.746094 -3.316407,8.484375 -8.148438,8.484375 z M 2.519531,-28.558594 V 0 h 8.484375 c 8.105469,0 14.195313,-6.214844 14.195313,-14.28125 0,-8.0625 -6.132813,-14.277344 -14.195313,-14.277344 z m 0,0"
           id="path34" />
      </g>
    </g>
  </g>
  <g
     fill="#30373f"
     fill-opacity="1"
     id="g48"
     transform="translate(-59.933594,-138.94922)"
     style="filter:url(#filter1389)">
    <g
       transform="translate(202.07855,176.99999)"
       id="g46">
      <g
         id="g44">
        <path
           d="m 18.058594,-10.921875 h -7.222656 l 3.613281,-10.164063 z M 28.726562,0 17.136719,-28.558594 H 11.800781 L 0.210938,0 H 6.972656 L 9.03125,-5.753906 h 10.875 L 21.964844,0 Z m 0,0"
           id="path42" />
      </g>
    </g>
  </g>
  <g
     fill="#30373f"
     fill-opacity="1"
     id="g56"
     transform="translate(-59.933594,-138.94922)"
     style="filter:url(#filter1395)">
    <g
       transform="translate(237.31658,176.99999)"
       id="g54">
      <g
         id="g52">
        <path
           d="m 14.65625,-22.847656 h 8.148438 v -5.710938 H 0.210938 v 5.710938 H 8.359375 V 0 h 6.296875 z m 0,0"
           id="path50" />
      </g>
    </g>
  </g>
  <g
     fill="#30373f"
     fill-opacity="1"
     id="g64"
     transform="translate(-59.933594,-138.94922)"
     style="filter:url(#filter1401)">
    <g
       transform="translate(266.63261,176.99999)"
       id="g62">
      <g
         id="g60">
        <path
           d="m 18.058594,-10.921875 h -7.222656 l 3.613281,-10.164063 z M 28.726562,0 17.136719,-28.558594 H 11.800781 L 0.210938,0 H 6.972656 L 9.03125,-5.753906 h 10.875 L 21.964844,0 Z m 0,0"
           id="path58" />
      </g>
    </g>
  </g>
  <g
     fill="#30373f"
     fill-opacity="1"
     id="g72"
     transform="translate(-59.933594,-138.94922)"
     style="filter:url(#filter1407)">
    <g
       transform="translate(169.10851,227.24998)"
       id="g70">
      <g
         id="g68">
        <path
           d="M 38.136719,-28.558594 H 31.207031 L 27.847656,-8.863281 22.261719,-28.558594 H 16.085938 L 10.5,-8.863281 7.140625,-28.558594 H 0.210938 L 5.753906,0 h 7.476563 L 19.195312,-20.035156 25.117188,0 h 7.476562 z m 0,0"
           id="path66" />
      </g>
    </g>
  </g>
  <g
     fill="#30373f"
     fill-opacity="1"
     id="g80"
     transform="translate(-59.933594,-138.94922)"
     style="filter:url(#filter1413)">
    <g
       transform="translate(213.75454,227.24998)"
       id="g78">
      <g
         id="g76">
        <path
           d="m 24.570312,-14.320312 c 0,4.410156 -3.992187,8.441406 -8.398437,8.441406 -4.410156,0 -8.402344,-4.03125 -8.402344,-8.441406 0,-4.410157 3.992188,-8.402344 8.402344,-8.402344 4.40625,0 8.398437,3.992187 8.398437,8.402344 z m 6.300782,0.03906 c 0,-7.894531 -6.804688,-14.699219 -14.699219,-14.699219 -7.898437,0 -14.703125,6.804688 -14.703125,14.699219 0,7.898438 6.804688,14.703125 14.703125,14.703125 7.894531,0 14.699219,-6.804687 14.699219,-14.703125 z m 0,0"
           id="path74" />
      </g>
    </g>
  </g>
  <g
     fill="#30373f"
     fill-opacity="1"
     id="g88"
     transform="translate(-59.933594,-138.94922)"
     style="filter:url(#filter1419)">
    <g
       transform="translate(252.39457,227.24998)"
       id="g86">
      <g
         id="g84">
        <path
           d="M 8.820312,-10.207031 H 8.863281 L 15.664062,0 h 7.980469 l -8.1875,-10.5 c 3.609375,-0.882812 6.507813,-4.074219 6.507813,-8.902344 0,-5.417968 -4.113282,-9.15625 -8.734375,-9.15625 H 2.519531 V 0 h 6.300781 z m 3.359376,-13.398438 c 1.847656,0 3.78125,1.597657 3.78125,4.203125 0,2.726563 -1.933594,4.242188 -3.78125,4.242188 H 8.820312 v -8.445313 z m 0,0"
           id="path82" />
      </g>
    </g>
  </g>
  <g
     fill="#30373f"
     fill-opacity="1"
     id="g96"
     transform="translate(-59.933594,-138.94922)"
     style="filter:url(#filter1425)">
    <g
       transform="translate(281.83661,227.24998)"
       id="g94">
      <g
         id="g92">
        <path
           d="M 8.820312,-12.769531 17.851562,0 h 8.484376 L 14.953125,-14.28125 25.914062,-28.558594 h -8.0625 l -9.03125,12.765625 V -28.558594 H 2.519531 V 0 h 6.300781 z m 0,0"
           id="path90" />
      </g>
    </g>
  </g>
  <g
     fill="#30373f"
     fill-opacity="1"
     id="g104"
     transform="translate(-59.933594,-138.94922)"
     style="filter:url(#filter1431)">
    <g
       transform="translate(314.05065,227.24998)"
       id="g102">
      <g
         id="g100">
        <path
           d="M 13.609375,-4.453125 C 10.5,-4.453125 7.8125,-6.007812 7.644531,-9.40625 H 1.261719 c 0.039062,6.96875 5.792969,10.078125 12.09375,10.078125 5.839843,0 11.84375,-2.476563 11.84375,-9.199219 0,-10.875 -16.503907,-7.222656 -16.503907,-12.304687 0,-2.140625 2.476563,-2.980469 4.242188,-2.980469 3.148438,0 4.871094,0.964844 5.207031,3.945312 h 6.089844 c -0.210937,-6.507812 -5.503906,-9.113281 -11.382813,-9.113281 -5.207031,0 -10.667968,2.773438 -10.667968,8.652344 0,10.542969 16.507812,6.972656 16.507812,12.515625 0,2.5625 -3.109375,3.359375 -5.082031,3.359375 z m 0,0"
           id="path98" />
      </g>
    </g>
  </g>
</svg>
