<svg xmlns="http://www.w3.org/2000/svg" xmlns:xlink="http://www.w3.org/1999/xlink" width="500" zoomAndPan="magnify" viewBox="0 0 375 374.999991" height="500" preserveAspectRatio="xMidYMid meet" version="1.0"><defs><g/><clipPath id="4f7d59bc65"><path d="M 77 138.949219 L 145.394531 138.949219 L 145.394531 187 L 77 187 Z M 77 138.949219 " clip-rule="nonzero"/></clipPath><clipPath id="12bdb2c73c"><path d="M 59.894531 155 L 128 155 L 128 203 L 59.894531 203 Z M 59.894531 155 " clip-rule="nonzero"/></clipPath><clipPath id="6a98a9786a"><path d="M 77 171 L 145.394531 171 L 145.394531 220 L 77 220 Z M 77 171 " clip-rule="nonzero"/></clipPath><clipPath id="92728bb1ad"><path d="M 59.933594 187.917969 L 127.558594 187.917969 L 127.558594 235.699219 L 59.933594 235.699219 Z M 59.933594 187.917969 " clip-rule="nonzero"/></clipPath></defs><g clip-path="url(#4f7d59bc65)"><path fill="#587d9f" d="M 121.347656 171.648438 C 119.050781 171.648438 118.273438 171.328125 111.089844 167.140625 C 109.082031 165.980469 106.625 164.5625 103.582031 162.820312 C 106.625 161.113281 109.050781 159.695312 111.058594 158.539062 C 118.335938 154.347656 119.113281 153.992188 121.347656 153.992188 C 126.230469 153.992188 130.179688 157.957031 130.210938 162.855469 C 130.179688 167.71875 126.199219 171.648438 121.347656 171.648438 Z M 145.355469 162.855469 C 145.355469 162.855469 145.355469 162.789062 145.355469 162.757812 C 145.324219 149.613281 134.546875 138.949219 121.347656 138.949219 C 114.679688 138.949219 111.25 140.914062 101.15625 146.777344 C 96.367188 149.546875 89.796875 153.351562 80.316406 158.472656 C 78.734375 159.34375 77.730469 160.984375 77.730469 162.820312 C 77.730469 164.625 78.734375 166.300781 80.316406 167.171875 C 89.925781 172.359375 96.5625 176.191406 101.382812 178.996094 C 111.671875 184.957031 114.777344 186.726562 121.378906 186.726562 C 134.582031 186.726562 145.355469 176 145.355469 162.855469 " fill-opacity="1" fill-rule="nonzero"/></g><g clip-path="url(#12bdb2c73c)"><path fill="#d6e0ed" d="M 83.941406 170.328125 C 86.238281 170.328125 87.015625 170.652344 94.230469 174.839844 C 96.238281 176 98.695312 177.417969 101.738281 179.125 C 98.695312 180.832031 96.269531 182.21875 94.265625 183.410156 C 86.984375 187.597656 86.207031 187.949219 83.972656 187.949219 C 79.089844 187.949219 75.140625 183.988281 75.140625 179.089844 C 75.109375 174.257812 79.089844 170.328125 83.941406 170.328125 Z M 104.132812 195.199219 C 108.921875 192.429688 115.488281 188.628906 124.96875 183.472656 C 126.554688 182.605469 127.558594 180.960938 127.558594 179.125 C 127.558594 177.320312 126.554688 175.644531 124.96875 174.773438 C 115.359375 169.585938 108.757812 165.753906 103.9375 162.949219 C 93.648438 156.992188 90.542969 155.21875 83.941406 155.21875 C 70.707031 155.21875 59.933594 165.949219 59.933594 179.089844 L 59.933594 179.15625 C 59.964844 192.300781 70.738281 202.964844 83.941406 202.964844 C 90.609375 203.03125 94.003906 201.066406 104.132812 195.199219 " fill-opacity="1" fill-rule="nonzero"/></g><g clip-path="url(#6a98a9786a)"><path fill="#30373f" d="M 121.347656 204.285156 C 119.050781 204.285156 118.273438 203.964844 111.089844 199.777344 C 109.082031 198.617188 106.625 197.199219 103.582031 195.457031 C 106.625 193.75 109.050781 192.332031 111.058594 191.171875 C 118.335938 186.984375 119.113281 186.632812 121.347656 186.632812 C 126.230469 186.632812 130.179688 190.59375 130.210938 195.492188 C 130.179688 200.386719 126.199219 204.285156 121.347656 204.285156 Z M 145.355469 195.492188 C 145.355469 195.492188 145.355469 195.425781 145.355469 195.394531 C 145.324219 182.25 134.546875 171.585938 121.347656 171.585938 C 114.679688 171.585938 111.25 173.550781 101.15625 179.414062 C 96.367188 182.183594 89.796875 185.988281 80.316406 191.109375 C 78.734375 191.976562 77.730469 193.621094 77.730469 195.457031 C 77.730469 197.261719 78.734375 198.9375 80.316406 199.808594 C 89.925781 204.996094 96.5625 208.828125 101.382812 211.632812 C 111.671875 217.589844 114.777344 219.363281 121.378906 219.363281 C 134.582031 219.394531 145.355469 208.667969 145.355469 195.492188 " fill-opacity="1" fill-rule="nonzero"/></g><g clip-path="url(#92728bb1ad)"><path fill="#587d9f" d="M 83.941406 203.03125 C 86.238281 203.03125 87.015625 203.351562 94.230469 207.539062 C 96.238281 208.699219 98.695312 210.117188 101.738281 211.824219 C 98.726562 213.53125 96.269531 214.917969 94.265625 216.078125 C 86.984375 220.265625 86.207031 220.621094 83.972656 220.621094 C 79.089844 220.621094 75.140625 216.65625 75.140625 211.761719 C 75.109375 206.960938 79.089844 203.03125 83.941406 203.03125 Z M 104.132812 227.902344 C 108.921875 225.132812 115.488281 221.328125 124.96875 216.175781 C 126.554688 215.304688 127.558594 213.660156 127.558594 211.824219 C 127.558594 210.019531 126.554688 208.34375 124.96875 207.476562 C 115.359375 202.257812 108.726562 198.453125 103.90625 195.652344 C 93.617188 189.691406 90.511719 187.917969 83.910156 187.917969 C 70.707031 187.949219 59.933594 198.679688 59.933594 211.824219 L 59.933594 211.890625 C 59.964844 225.035156 70.738281 235.699219 83.941406 235.699219 C 90.609375 235.730469 94.003906 233.765625 104.132812 227.902344 " fill-opacity="1" fill-rule="nonzero"/></g><g fill="#30373f" fill-opacity="1"><g transform="translate(169.108515, 176.999988)"><g><path d="M 8.734375 -5.796875 L 8.734375 -22.722656 L 10.625 -22.722656 C 15.496094 -22.722656 18.773438 -19.027344 18.773438 -14.28125 C 18.773438 -9.535156 15.457031 -5.796875 10.625 -5.796875 Z M 2.519531 -28.558594 L 2.519531 0 L 11.003906 0 C 19.109375 0 25.199219 -6.214844 25.199219 -14.28125 C 25.199219 -22.34375 19.066406 -28.558594 11.003906 -28.558594 Z M 2.519531 -28.558594 "/></g></g></g><g fill="#30373f" fill-opacity="1"><g transform="translate(202.078547, 176.999988)"><g><path d="M 18.058594 -10.921875 L 10.835938 -10.921875 L 14.449219 -21.085938 Z M 28.726562 0 L 17.136719 -28.558594 L 11.800781 -28.558594 L 0.210938 0 L 6.972656 0 L 9.03125 -5.753906 L 19.90625 -5.753906 L 21.964844 0 Z M 28.726562 0 "/></g></g></g><g fill="#30373f" fill-opacity="1"><g transform="translate(237.31658, 176.999988)"><g><path d="M 14.65625 -22.847656 L 22.804688 -22.847656 L 22.804688 -28.558594 L 0.210938 -28.558594 L 0.210938 -22.847656 L 8.359375 -22.847656 L 8.359375 0 L 14.65625 0 Z M 14.65625 -22.847656 "/></g></g></g><g fill="#30373f" fill-opacity="1"><g transform="translate(266.63261, 176.999988)"><g><path d="M 18.058594 -10.921875 L 10.835938 -10.921875 L 14.449219 -21.085938 Z M 28.726562 0 L 17.136719 -28.558594 L 11.800781 -28.558594 L 0.210938 0 L 6.972656 0 L 9.03125 -5.753906 L 19.90625 -5.753906 L 21.964844 0 Z M 28.726562 0 "/></g></g></g><g fill="#30373f" fill-opacity="1"><g transform="translate(169.108515, 227.249985)"><g><path d="M 38.136719 -28.558594 L 31.207031 -28.558594 L 27.847656 -8.863281 L 22.261719 -28.558594 L 16.085938 -28.558594 L 10.5 -8.863281 L 7.140625 -28.558594 L 0.210938 -28.558594 L 5.753906 0 L 13.230469 0 L 19.195312 -20.035156 L 25.117188 0 L 32.59375 0 Z M 38.136719 -28.558594 "/></g></g></g><g fill="#30373f" fill-opacity="1"><g transform="translate(213.754541, 227.249985)"><g><path d="M 24.570312 -14.320312 C 24.570312 -9.910156 20.578125 -5.878906 16.171875 -5.878906 C 11.761719 -5.878906 7.769531 -9.910156 7.769531 -14.320312 C 7.769531 -18.730469 11.761719 -22.722656 16.171875 -22.722656 C 20.578125 -22.722656 24.570312 -18.730469 24.570312 -14.320312 Z M 30.871094 -14.28125 C 30.871094 -22.175781 24.066406 -28.980469 16.171875 -28.980469 C 8.273438 -28.980469 1.46875 -22.175781 1.46875 -14.28125 C 1.46875 -6.382812 8.273438 0.421875 16.171875 0.421875 C 24.066406 0.421875 30.871094 -6.382812 30.871094 -14.28125 Z M 30.871094 -14.28125 "/></g></g></g><g fill="#30373f" fill-opacity="1"><g transform="translate(252.39457, 227.249985)"><g><path d="M 8.820312 -10.207031 L 8.863281 -10.207031 L 15.664062 0 L 23.644531 0 L 15.457031 -10.5 C 19.066406 -11.382812 21.964844 -14.574219 21.964844 -19.402344 C 21.964844 -24.820312 17.851562 -28.558594 13.230469 -28.558594 L 2.519531 -28.558594 L 2.519531 0 L 8.820312 0 Z M 12.179688 -23.605469 C 14.027344 -23.605469 15.960938 -22.007812 15.960938 -19.402344 C 15.960938 -16.675781 14.027344 -15.160156 12.179688 -15.160156 L 8.820312 -15.160156 L 8.820312 -23.605469 Z M 12.179688 -23.605469 "/></g></g></g><g fill="#30373f" fill-opacity="1"><g transform="translate(281.836611, 227.249985)"><g><path d="M 8.820312 -12.769531 L 17.851562 0 L 26.335938 0 L 14.953125 -14.28125 L 25.914062 -28.558594 L 17.851562 -28.558594 L 8.820312 -15.792969 L 8.820312 -28.558594 L 2.519531 -28.558594 L 2.519531 0 L 8.820312 0 Z M 8.820312 -12.769531 "/></g></g></g><g fill="#30373f" fill-opacity="1"><g transform="translate(314.050652, 227.249985)"><g><path d="M 13.609375 -4.453125 C 10.5 -4.453125 7.8125 -6.007812 7.644531 -9.40625 L 1.261719 -9.40625 C 1.300781 -2.4375 7.054688 0.671875 13.355469 0.671875 C 19.195312 0.671875 25.199219 -1.804688 25.199219 -8.527344 C 25.199219 -19.402344 8.695312 -15.75 8.695312 -20.832031 C 8.695312 -22.972656 11.171875 -23.8125 12.9375 -23.8125 C 16.085938 -23.8125 17.808594 -22.847656 18.144531 -19.867188 L 24.234375 -19.867188 C 24.023438 -26.375 18.730469 -28.980469 12.851562 -28.980469 C 7.644531 -28.980469 2.183594 -26.207031 2.183594 -20.328125 C 2.183594 -9.785156 18.691406 -13.355469 18.691406 -7.8125 C 18.691406 -5.25 15.582031 -4.453125 13.609375 -4.453125 Z M 13.609375 -4.453125 "/></g></g></g></svg>