<?xml version="1.0" encoding="UTF-8" standalone="no"?>
<svg
   width="277.72397"
   zoomAndPan="magnify"
   viewBox="0 0 208.29298 236.99711"
   height="315.99615"
   preserveAspectRatio="xMidYMid"
   version="1.0"
   id="svg196"
   sodipodi:docname="logo_simple.svg"
   inkscape:version="1.2.2 (b0a8486541, 2022-12-01)"
   xmlns:inkscape="http://www.inkscape.org/namespaces/inkscape"
   xmlns:sodipodi="http://sodipodi.sourceforge.net/DTD/sodipodi-0.dtd"
   xmlns="http://www.w3.org/2000/svg"
   xmlns:svg="http://www.w3.org/2000/svg">
  <sodipodi:namedview
     id="namedview198"
     pagecolor="#ffffff"
     bordercolor="#000000"
     borderopacity="0.25"
     inkscape:showpageshadow="2"
     inkscape:pageopacity="0.0"
     inkscape:pagecheckerboard="0"
     inkscape:deskcolor="#d1d1d1"
     showgrid="false"
     inkscape:zoom="0.472"
     inkscape:cx="139.83051"
     inkscape:cy="159.95763"
     inkscape:window-width="1536"
     inkscape:window-height="867"
     inkscape:window-x="0"
     inkscape:window-y="0"
     inkscape:window-maximized="1"
     inkscape:current-layer="svg196" />
  <defs
     id="defs178">
    <clipPath
       id="2a3d4c488b">
      <path
         d="M 126,69.046875 H 291.76172 V 187 H 126 Z m 0,0"
         clip-rule="nonzero"
         id="path166" />
    </clipPath>
    <clipPath
       id="d5fe468b7c">
      <path
         d="M 83.261719,108 H 249 V 226 H 83.261719 Z m 0,0"
         clip-rule="nonzero"
         id="path169" />
    </clipPath>
    <clipPath
       id="679f12d883">
      <path
         d="M 126,148 H 291.76172 V 267 H 126 Z m 0,0"
         clip-rule="nonzero"
         id="path172" />
    </clipPath>
    <clipPath
       id="02ee1933d9">
      <path
         d="M 83.363281,189.00391 H 248.26172 V 306.04687 H 83.363281 Z m 0,0"
         clip-rule="nonzero"
         id="path175" />
    </clipPath>
  </defs>
  <g
     clip-path="url(#2a3d4c488b)"
     id="g182"
     transform="translate(-83.363281,-69.046875)">
    <path
       fill="#587d9f"
       d="m 233.11328,149.15234 c -5.60156,0 -7.49609,-0.78906 -25.00781,-11.05078 -4.89453,-2.84375 -10.89063,-6.3125 -18.3086,-10.57812 7.41797,-4.17969 13.33594,-7.65235 18.22657,-10.49219 17.7539,-10.26172 19.64453,-11.12891 25.08984,-11.12891 11.91406,0 21.54297,9.70704 21.61719,21.70313 -0.0742,11.91797 -9.78125,21.54687 -21.61719,21.54687 z m 58.54297,-21.54687 c 0,0 0,-0.15625 0,-0.23828 -0.0781,-32.199221 -26.35156,-58.320315 -58.54297,-58.320315 -16.25391,0 -24.61328,4.8125 -49.23437,19.175781 -11.67188,6.785156 -27.69141,16.101564 -50.8086,28.648434 -3.86328,2.13282 -6.3125,6.15625 -6.3125,10.65235 0,4.42187 2.44922,8.52343 6.3125,10.65625 23.4336,12.70703 39.60547,22.09765 51.36328,28.96484 25.08985,14.60156 32.66407,18.94141 48.75782,18.94141 32.1914,0 58.46484,-26.28125 58.46484,-58.48047"
       fill-opacity="1"
       fill-rule="nonzero"
       id="path180" />
  </g>
  <g
     clip-path="url(#d5fe468b7c)"
     id="g186"
     transform="translate(-83.363281,-69.046875)">
    <path
       fill="#d6e0ed"
       d="m 141.90625,145.91406 c 5.60156,0 7.49609,0.78906 25.08984,11.04688 4.89063,2.84375 10.89063,6.3164 18.30469,10.5 -7.41406,4.18359 -13.33203,7.57812 -18.22266,10.49609 -17.7539,10.25781 -19.64843,11.125 -25.09375,11.125 -11.91406,0 -21.53906,-9.70312 -21.53906,-21.70312 -0.0781,-11.83594 9.625,-21.46485 21.46094,-21.46485 z m 49.23437,60.92578 c 11.67579,-6.78515 27.69141,-16.09765 50.8086,-28.72656 3.86719,-2.12891 6.3125,-6.15625 6.3125,-10.65234 0,-4.42188 -2.44531,-8.52344 -6.3125,-10.65625 -23.42969,-12.70703 -39.52735,-22.09766 -51.28125,-28.96094 -25.09375,-14.60156 -32.66406,-18.94141 -48.76172,-18.94141 -32.26953,0 -58.542969,26.28125 -58.542969,58.47657 v 0.16015 c 0.08203,32.19922 26.351559,58.32422 58.542969,58.32422 16.25391,0.15625 24.53906,-4.65625 49.23437,-19.02344"
       fill-opacity="1"
       fill-rule="nonzero"
       id="path184" />
  </g>
  <g
     clip-path="url(#679f12d883)"
     id="g190"
     transform="translate(-83.363281,-69.046875)">
    <path
       fill="#30373f"
       d="m 233.11328,229.09375 c -5.60156,0 -7.49609,-0.78906 -25.00781,-11.04297 -4.89453,-2.84375 -10.89063,-6.31641 -18.3086,-10.57812 7.41797,-4.1836 13.33594,-7.65625 18.22657,-10.4961 17.7539,-10.26172 19.64453,-11.1289 25.08984,-11.1289 11.91406,0 21.54297,9.71093 21.61719,21.70312 -0.0742,11.99609 -9.78125,21.54297 -21.61719,21.54297 z m 58.54297,-21.54297 c 0,0 0,-0.15625 0,-0.23437 -0.0781,-32.20313 -26.35156,-58.32422 -58.54297,-58.32422 -16.25391,0 -24.61328,4.8125 -49.23437,19.17578 -11.67188,6.78906 -27.69141,16.10156 -50.8086,28.64844 -3.86328,2.13281 -6.3125,6.15625 -6.3125,10.65625 0,4.42187 2.44922,8.52343 6.3125,10.65234 23.4336,12.70703 39.60547,22.09766 51.36328,28.96484 25.08985,14.60157 32.66407,18.94141 48.75782,18.94141 32.1914,0.0781 58.46484,-26.20313 58.46484,-58.48047"
       fill-opacity="1"
       fill-rule="nonzero"
       id="path188" />
  </g>
  <g
     clip-path="url(#02ee1933d9)"
     id="g194"
     transform="translate(-83.363281,-69.046875)">
    <path
       fill="#587d9f"
       d="m 141.90625,226.01953 c 5.60156,0 7.49609,0.78906 25.08984,11.04688 4.89063,2.84375 10.89063,6.3164 18.30469,10.5 -7.33984,4.18359 -13.33203,7.57421 -18.22266,10.41406 -17.7539,10.26172 -19.64843,11.1289 -25.09375,11.1289 -11.91406,0 -21.53906,-9.70703 -21.53906,-21.70312 -0.0781,-11.76172 9.625,-21.38672 21.46094,-21.38672 z m 49.23437,60.92578 c 11.67579,-6.78515 27.69141,-16.09765 50.8086,-28.72656 3.86719,-2.12891 6.3125,-6.15625 6.3125,-10.65234 0,-4.42188 -2.44531,-8.52735 -6.3125,-10.65625 C 218.51953,224.125 202.34375,214.8125 190.58594,207.94531 165.5,193.34766 157.92187,189.00391 141.82812,189.00391 c -32.1914,0.0781 -58.464839,26.35937 -58.464839,58.5625 v 0.15625 c 0.08203,32.19921 26.351559,58.32031 58.542969,58.32031 16.25391,0.082 24.53906,-4.73047 49.23437,-19.09766"
       fill-opacity="1"
       fill-rule="nonzero"
       id="path192" />
  </g>
</svg>
